<?xml version="1.0" standalone="no"?>
<!DOCTYPE svg PUBLIC "-//W3C//DTD SVG 20010904//EN"
 "http://www.w3.org/TR/2001/REC-SVG-20010904/DTD/svg10.dtd">
<svg version="1.0" xmlns="http://www.w3.org/2000/svg"
 width="128.000000pt" height="128.000000pt" viewBox="0 0 128.000000 128.000000"
 preserveAspectRatio="xMidYMid meet">
<metadata>
Created by potrace 1.11, written by Peter Selinger 2001-2013
</metadata>
<g transform="translate(0.000000,128.000000) scale(0.100000,-0.100000)"
fill="#000000" stroke="none">
<path d="M595 1203 c-189 -14 -372 -138 -457 -308 -47 -93 -60 -151 -60 -255
0 -254 157 -462 410 -545 73 -23 231 -23 304 0 75 25 146 62 195 101 23 19 43
34 46 34 3 0 7 -32 9 -71 2 -39 9 -73 16 -78 16 -9 151 4 163 16 7 7 1 69 -17
188 -24 157 -25 185 -14 227 6 27 12 86 12 132 0 153 -54 280 -166 392 -121
121 -275 179 -441 167z m209 -83 c139 -47 265 -169 312 -301 27 -78 35 -141
28 -224 -8 -86 -7 -86 -30 23 -3 17 -10 22 -27 20 -22 -3 -22 -5 -18 -135 3
-129 3 -134 -21 -165 -63 -82 -149 -145 -246 -180 -78 -28 -234 -30 -312 -4
-163 54 -282 173 -336 336 -25 76 -25 226 0 300 63 185 233 330 416 354 64 8
174 -3 234 -24z"/>
<path d="M715 1090 c-11 -17 -56 -300 -50 -310 9 -14 41 -12 53 3 5 6 40 67
76 135 76 140 76 142 -7 167 -60 18 -64 18 -72 5z"/>
<path d="M840 888 c-113 -135 -113 -134 -86 -175 11 -18 27 -33 34 -33 27 0
278 73 291 85 11 11 9 22 -11 67 -32 68 -103 158 -126 158 -10 0 -54 -43 -102
-102z"/>
<path d="M571 714 c-27 -22 -31 -33 -31 -73 0 -39 5 -52 29 -75 66 -64 171
-17 171 75 0 88 -100 131 -169 73z"/>
<path d="M320 596 l-135 -21 1 -36 c2 -60 57 -164 122 -228 55 -55 143 -111
176 -111 21 0 24 6 72 158 l43 135 -39 34 c-21 19 -44 48 -50 64 -15 34 -10
34 -190 5z"/>
</g>
</svg>
